# Blender v2.79 (sub 0) OBJ File: 'block.blend'
# www.blender.org
mtllib block.mtl
o Cube
v 1.000000 0.000000 -1.000000
v 1.000000 0.000000 0.000000
v -0.000000 0.000000 -0.000000
v 0.000000 0.000000 -1.000000
v 1.000000 1.000000 -1.000000
v 1.000000 1.000000 0.000000
v -0.000000 1.000000 -0.000000
v 0.000000 1.000000 -1.000000
vt 0.000000 0.333333
vt 0.333333 0.333333
vt 0.333333 0.666667
vt 0.000000 0.666667
vt 0.666667 0.000000
vt 0.666667 0.333333
vt 0.333334 0.333333
vt 0.333333 0.000000
vt 0.333333 1.000000
vt 0.000000 1.000000
vt 0.000000 0.666667
vt 0.333333 0.666667
vt 0.333333 0.333334
vt 0.666667 0.333333
vt 0.666667 0.666667
vt 0.333333 0.333333
vt 0.000000 0.333333
vt 0.000000 0.000000
vt 0.333333 0.000000
vt 1.000000 0.000000
vt 1.000000 0.333333
vn 0.0000 -1.0000 0.0000
vn 0.0000 1.0000 0.0000
vn 1.0000 0.0000 0.0000
vn -0.0000 -0.0000 1.0000
vn -1.0000 -0.0000 -0.0000
vn 0.0000 0.0000 -1.0000
usemtl Material
s off
f 1/1/1 2/2/1 3/3/1 4/4/1
f 5/5/2 8/6/2 7/7/2 6/8/2
f 1/9/3 5/10/3 6/11/3 2/12/3
f 2/12/4 6/13/4 7/14/4 3/15/4
f 3/16/5 7/17/5 8/18/5 4/19/5
f 5/5/6 1/20/6 4/21/6 8/6/6
