<svg version="1.1" viewBox="0.0 0.0 960.0 540.0" fill="none" stroke="none" stroke-linecap="square" stroke-miterlimit="10" xmlns:xlink="http://www.w3.org/1999/xlink" xmlns="http://www.w3.org/2000/svg"><clipPath id="g52b594b1cd_0_1251.0"><path d="m0 0l960.0 0l0 540.0l-960.0 0l0 -540.0z" clip-rule="nonzero"/></clipPath><g clip-path="url(#g52b594b1cd_0_1251.0)"><path fill="#000e0e" d="m0 0l960.0 0l0 540.0l-960.0 0z" fill-rule="evenodd"/><path fill="#660000" d="m293.9637 327.2467l186.36221 -322.36218l186.36218 322.36218z" fill-rule="evenodd"/><path stroke="#ff0000" stroke-width="3.0" stroke-linejoin="round" stroke-linecap="butt" d="m293.9637 327.2467l186.36221 -322.36218l186.36218 322.36218z" fill-rule="evenodd"/><path fill="#990000" d="m389.23944 171.08617l181.32281 0l0 91.401566l-181.32281 0z" fill-rule="evenodd"/><path stroke="#ff0000" stroke-width="2.0" stroke-linejoin="round" stroke-linecap="butt" d="m389.23944 171.08617l181.32281 0l0 91.401566l-181.32281 0z" fill-rule="evenodd"/><path fill="#000000" fill-opacity="0.0" d="m479.86905 324.88223c0 -15.598419 0.015777588 -23.397614 0.03152466 -31.196838c0.01574707 -7.799225 0.03149414 -15.598419 0.03149414 -31.196838" fill-rule="evenodd"/><path stroke="#ff0000" stroke-width="3.0" stroke-linejoin="round" stroke-linecap="butt" stroke-dasharray="12.0,9.0,3.0,9.0" d="m479.87845 306.88223l4.5776367E-4 -0.5231323c0.0058898926 -4.8745117 0.013763428 -8.774109 0.021636963 -12.673706c0.01574707 -7.799225 0.03149414 -15.598419 0.03149414 -31.196869" fill-rule="evenodd"/><path fill="#ff0000" stroke="#ff0000" stroke-width="3.0" stroke-linecap="butt" d="m474.92325 306.87967l4.9480896 13.616852l4.962311 -13.611694z" fill-rule="evenodd"/><path fill="#000000" fill-opacity="0.0" d="m547.3498 127.79396l-134.89761 0.03150177l0 43.65354l134.89761 -0.03149414z" fill-rule="evenodd"/><path fill="#00bbbb" d="m455.40158 150.9073l2.609375 -6.1035156E-4l0 2.671875l-2.15625 1.2505035l-5.28125 0.0012359619l-2.171875 -1.2494965l0 -10.75l2.171875 -1.2505035l5.28125 -0.0012359619l2.15625 1.2494965l0 2.671875l-2.609375 6.1035156E-4l0 -1.671875l-4.375 0.0010223389l0 8.765625l4.375 -0.0010223389l0 -1.6875zm7.5773315 3.826355l-2.15625 -1.2494965l0 -12.375l2.546875 -5.950928E-4l0 11.4375l1.875 -4.272461E-4l0 2.1875l-2.265625 5.187988E-4zm3.9443665 -1.1571655l0 -8.171875l2.546875 -5.950928E-4l0 7.234375l3.1875 -7.4768066E-4l0 -7.234375l2.5625 -5.950928E-4l0 9.421875l-2.109375 4.8828125E-4l-0.453125 -0.7655182l-1.3125 0.7659302l-2.265625 5.340576E-4l-2.15625 -1.2494965zm18.475464 -3.4418182l0 3.34375l-2.15625 1.2505035l-5.21875 0.0012207031l0 -2.1875l4.828125 -0.0011291504l0 -1.4375l-2.671875 6.2561035E-4l-2.15625 -1.2494965l0 -3.203125l2.15625 -1.2505035l5.03125 -0.0011749268l0 2.1875l-4.640625 0.001083374l0 1.296875l2.671875 -6.2561035E-4l2.15625 1.2494965zm2.0613098 -2.547348l0 -2.1875l1.71875 -4.119873E-4l0 -1.5625l2.546875 -1.4849701l0 3.046875l2.0625 -4.7302246E-4l0 2.1875l-2.0625 4.7302246E-4l0 4.953125l2.0625 -4.7302246E-4l0 2.1875l-2.453125 5.645752E-4l-2.15625 -1.2494965l0 -5.890625l-1.71875 4.119873E-4zm16.487915 4.9492645l0 2.1875l-5.578125 0.0013122559l-2.15625 -1.2494965l0 -6.921875l2.15625 -1.2505035l3.421875 -8.087158E-4l2.15625 1.2494965l0 4.453125l-5.1875 0.0012207031l0 1.53125l5.1875 -0.0012207031zm-5.1875 -5.0456543l0 1.59375l2.625 -6.1035156E-4l0 -1.59375l-2.625 6.1035156E-4zm13.743927 0.090530396l-3.2031555 7.4768066E-4l0 7.140625l-2.546875 5.950928E-4l0 -9.328125l2.09375 -4.8828125E-4l0.453125 0.7655182l1.328125 -0.7659302l1.8750305 -4.4250488E-4l0 2.1875z" fill-rule="nonzero"/><path fill="#000000" fill-opacity="0.0" d="m382.65237 176.53815l196.47244 0l0 75.30708l-196.47244 0z" fill-rule="evenodd"/><path fill="#001818" d="m463.4206 206.01814l0 -9.859375l-0.046875 0l-3.359375 9.859375l-2.84375 0l-3.390625 -9.984375l-0.046875 0l0 9.984375l-2.875 0l0 -14.9375l3.96875 0l3.75 10.984375l0.046875 0l3.734375 -10.984375l3.9375 0l0 14.9375l-2.875 0zm15.786163 -1.328125l-2.484375 1.4375l-4.53125 0l-2.484375 -1.4375l0 -8.015625l2.484375 -1.421875l4.53125 0l2.484375 1.421875l0 8.015625zm-6.578125 -6.953125l0 5.890625l3.65625 0l0 -5.890625l-3.65625 0zm12.252777 -2.484375l2.796875 0l1.5 0.875l0 -5.671875l2.921875 0l0 15.671875l-2.40625 0l-0.515625 -0.875l-1.5 0.875l-2.796875 0l-2.484375 -1.4375l0 -8.015625l2.484375 -1.421875zm4.296875 8.375l0 -5.890625l-3.859375 0l0 5.890625l3.859375 0zm14.981689 -0.109375l0 2.5l-6.375 0l-2.484375 -1.421875l0 -7.921875l2.484375 -1.421875l3.90625 0l2.46875 1.421875l0 5.09375l-5.9375 0l0 1.75l5.9375 0zm-5.9375 -5.78125l0 1.84375l3.015625 0l0 -1.84375l-3.015625 0zm11.612946 8.28125l-2.484375 -1.421875l0 -14.140625l2.921875 0l0 13.0625l2.1406555 0l0 2.5l-2.5781555 0z" fill-rule="nonzero"/><path fill="#001818" d="m400.2889 224.44002l0 -6.03125l2.46875 -1.421875l5.40625 0l2.46875 1.421875l0 2.84375l-2.984375 0l0 -1.71875l-4.375 0l0 3.5625l4.890625 0l2.46875 1.4375l0 6.15625l-2.46875 1.4375l-5.609375 0l-2.484375 -1.4375l0 -2.828125l2.984375 0l0 1.703125l4.59375 0l0 -3.6875l-4.890625 0l-2.46875 -1.4375zm14.594971 11.84375l1.953125 -5.015625l-4.078125 -9.921875l2.921875 0l2.625 6.28125l0.046875 0l2.46875 -6.28125l2.921875 0l-5.984375 14.9375l-2.875 0zm20.28012 -13.609375l0 9.34375l-2.921875 0l0 -8.28125l-3.65625 0l0 8.28125l-2.921875 0l0 -10.765625l2.421875 0l0.5 0.875l1.515625 -0.875l2.578125 0l2.484375 1.421875zm6.112152 1.171875l0 5.671875l5.296875 0l0 2.5l-5.734375 0l-2.484375 -1.421875l0 -7.8125l2.484375 -1.4375l5.734375 0l0 2.5l-5.296875 0zm10.984039 8.171875l-2.921875 0l0 -15.5625l2.921875 0l0 5.671875l1.515625 -0.875l2.796875 0l2.46875 1.421875l0 9.34375l-2.921875 0l0 -8.28125l-3.859375 0l0 8.28125zm16.57544 -8.171875l-3.671875 0l0 8.171875l-2.921875 0l0 -10.671875l2.421875 0l0.5 0.875l1.515625 -0.875l2.15625 0l0 2.5zm11.629486 6.84375l-2.484375 1.4375l-4.53125 0l-2.484375 -1.4375l0 -8.015625l2.484375 -1.421875l4.53125 0l2.484375 1.421875l0 8.015625zm-6.578125 -6.953125l0 5.890625l3.65625 0l0 -5.890625l-3.65625 0zm19.268402 -1.0625l0 9.34375l-2.921875 0l0 -8.28125l-3.65625 0l0 8.28125l-2.921875 0l0 -10.765625l2.421875 0l0.5 0.875l1.515625 -0.875l2.578125 0l2.484375 1.421875zm6.1121826 -1.328125l0 10.671875l-2.921875 0l0 -10.671875l2.921875 0zm-3.015625 -1.96875l0 -2.921875l3.125 0l0 2.921875l-3.125 0zm5.3711853 10.59375l4.609375 -6.078125l0 -0.046875l-4.40625 0l0 -2.5l8.234375 0l0 2.0625l-4.609375 6.078125l0 0.03125l4.609375 0l0 2.5l-8.4375 0l0 -2.046875zm13.496002 -2.15625l0 1.859375l3.015625 0l0 -1.859375l-3.015625 0zm-0.453125 4.3125l-2.46875 -1.4375l0 -3.6875l2.46875 -1.421875l3.46875 0l0 -1.734375l-4.875 0l0 -2.5l5.3125 0l2.484375 1.4375l0 9.34375l-1.421875 0l-1.5 -0.875l-1.515625 0.875l-1.953125 0zm8.733215 -8.28125l0 -2.5l1.953125 0l0 -1.78125l2.921875 -1.6875l0 3.46875l2.359375 0l0 2.5l-2.359375 0l0 5.671875l2.359375 0l0 2.5l-2.796875 0l-2.484375 -1.421875l0 -6.75l-1.953125 0zm12.915405 -2.5l0 10.671875l-2.921875 0l0 -10.671875l2.921875 0zm-3.015625 -1.96875l0 -2.921875l3.125 0l0 2.921875l-3.125 0zm15.714966 11.3125l-2.484375 1.4375l-4.53125 0l-2.484375 -1.4375l0 -8.015625l2.484375 -1.421875l4.53125 0l2.484375 1.421875l0 8.015625zm-6.578125 -6.953125l0 5.890625l3.65625 0l0 -5.890625l-3.65625 0zm19.268433 -1.0625l0 9.34375l-2.921875 0l0 -8.28125l-3.65625 0l0 8.28125l-2.921875 0l0 -10.765625l2.421875 0l0.5 0.875l1.515625 -0.875l2.578125 0l2.484375 1.421875z" fill-rule="nonzero"/><path fill="#274e13" d="m174.33476 535.1165l105.517075 -182.75854l185.37268 0l0 182.75854z" fill-rule="evenodd"/><path stroke="#00ff00" stroke-width="3.0" stroke-linejoin="round" stroke-linecap="butt" d="m174.33476 535.1165l105.517075 -182.75854l185.37268 0l0 182.75854z" fill-rule="evenodd"/><path fill="#073763" d="m785.6642 535.1165l-105.51709 -182.75854l-185.37271 0l0 182.75854z" fill-rule="evenodd"/><path stroke="#0000ff" stroke-width="3.0" stroke-linejoin="round" stroke-linecap="butt" d="m785.6642 535.1165l-105.51709 -182.75854l-185.37271 0l0 182.75854z" fill-rule="evenodd"/><path fill="#38761d" d="m295.66238 393.6026l140.31497 0l0 42.86615l-140.31497 0z" fill-rule="evenodd"/><path stroke="#00ff00" stroke-width="2.0" stroke-linejoin="round" stroke-linecap="butt" d="m295.66238 393.6026l140.31497 0l0 42.86615l-140.31497 0z" fill-rule="evenodd"/><path fill="#001818" d="m313.9703 416.36194l0 3.359375l5.203125 0l0 2.234375l-7.828125 0l0 -13.0625l7.828125 0l0 2.234375l-5.203125 0l0 3.0l4.078125 0l0 2.234375l-4.078125 0zm15.742279 -2.578125l0 8.171875l-2.5625 0l0 -7.234375l-3.1875 0l0 7.234375l-2.546875 0l0 -9.421875l2.09375 0l0.453125 0.765625l1.328125 -0.765625l2.25 0l2.171875 1.25zm4.225464 -1.15625l2.15625 6.125l0.03125 0l2.171875 -6.125l2.546875 0l-3.453125 9.328125l-2.546875 0l-3.453125 -9.328125l2.546875 0zm11.143402 0l0 9.328125l-2.546875 0l0 -9.328125l2.546875 0zm-2.640625 -1.734375l0 -2.5625l2.734375 0l0 2.5625l-2.734375 0zm11.19809 3.921875l-3.203125 0l0 7.140625l-2.546875 0l0 -9.328125l2.09375 0l0.453125 0.765625l1.328125 -0.765625l1.875 0l0 2.1875zm10.177277 5.984375l-2.171875 1.25l-3.96875 0l-2.15625 -1.25l0 -7.015625l2.15625 -1.25l3.96875 0l2.171875 1.25l0 7.015625zm-5.75 -6.078125l0 5.140625l3.1875 0l0 -5.140625l-3.1875 0zm16.850464 -0.9375l0 8.171875l-2.5625 0l0 -7.234375l-3.1875 0l0 7.234375l-2.546875 0l0 -9.421875l2.09375 0l0.453125 0.765625l1.328125 -0.765625l2.25 0l2.171875 1.25zm15.912964 0l0 8.171875l-2.5625 0l0 -7.234375l-2.71875 0l0 7.234375l-2.5625 0l0 -7.234375l-2.71875 0l0 7.234375l-2.546875 0l0 -9.421875l2.09375 0l0.453125 0.765625l1.328125 -0.765625l1.796875 0l1.734375 1.015625l1.75 -1.015625l1.78125 0l2.171875 1.25zm10.538788 5.984375l0 2.1875l-5.578125 0l-2.15625 -1.25l0 -6.921875l2.15625 -1.25l3.421875 0l2.15625 1.25l0 4.453125l-5.1875 0l0 1.53125l5.1875 0zm-5.1875 -5.046875l0 1.59375l2.625 0l0 -1.59375l-2.625 0zm16.290771 -0.9375l0 8.171875l-2.5625 0l0 -7.234375l-3.1875 0l0 7.234375l-2.546875 0l0 -9.421875l2.09375 0l0.453125 0.765625l1.328125 -0.765625l2.25 0l2.171875 1.25zm2.0535889 1.03125l0 -2.1875l1.71875 0l0 -1.5625l2.546875 -1.484375l0 3.046875l2.0625 0l0 2.1875l-2.0625 0l0 4.953125l2.0625 0l0 2.1875l-2.453125 0l-2.15625 -1.25l0 -5.890625l-1.71875 0z" fill-rule="nonzero"/><path fill="#38761d" d="m295.6604 470.81485l140.31497 0l0 42.86612l-140.31497 0z" fill-rule="evenodd"/><path stroke="#00ff00" stroke-width="2.0" stroke-linejoin="round" stroke-linecap="butt" d="m295.6604 470.81485l140.31497 0l0 42.86612l-140.31497 0z" fill-rule="evenodd"/><path fill="#001818" d="m313.96832 493.5742l0 3.359375l5.203125 0l0 2.234375l-7.828125 0l0 -13.0625l7.828125 0l0 2.234375l-5.203125 0l0 3.0l4.078125 0l0 2.234375l-4.078125 0zm15.742279 -2.578125l0 8.171875l-2.5625 0l0 -7.234375l-3.1875 0l0 7.234375l-2.546875 0l0 -9.421875l2.09375 0l0.453125 0.765625l1.328125 -0.765625l2.25 0l2.171875 1.25zm4.225464 -1.15625l2.15625 6.125l0.03125 0l2.171875 -6.125l2.546875 0l-3.453125 9.328125l-2.546875 0l-3.453125 -9.328125l2.546875 0zm11.143402 0l0 9.328125l-2.546875 0l0 -9.328125l2.546875 0zm-2.640625 -1.734375l0 -2.5625l2.734375 0l0 2.5625l-2.734375 0zm11.19809 3.921875l-3.203125 0l0 7.140625l-2.546875 0l0 -9.328125l2.09375 0l0.453125 0.765625l1.328125 -0.765625l1.875 0l0 2.1875zm10.177277 5.984375l-2.171875 1.25l-3.96875 0l-2.15625 -1.25l0 -7.015625l2.15625 -1.25l3.96875 0l2.171875 1.25l0 7.015625zm-5.75 -6.078125l0 5.140625l3.1875 0l0 -5.140625l-3.1875 0zm16.850464 -0.9375l0 8.171875l-2.5625 0l0 -7.234375l-3.1875 0l0 7.234375l-2.546875 0l0 -9.421875l2.09375 0l0.453125 0.765625l1.328125 -0.765625l2.25 0l2.171875 1.25zm15.912964 0l0 8.171875l-2.5625 0l0 -7.234375l-2.71875 0l0 7.234375l-2.5625 0l0 -7.234375l-2.71875 0l0 7.234375l-2.546875 0l0 -9.421875l2.09375 0l0.453125 0.765625l1.328125 -0.765625l1.796875 0l1.734375 1.015625l1.75 -1.015625l1.78125 0l2.171875 1.25zm10.538788 5.984375l0 2.1875l-5.578125 0l-2.15625 -1.25l0 -6.921875l2.15625 -1.25l3.421875 0l2.15625 1.25l0 4.453125l-5.1875 0l0 1.53125l5.1875 0zm-5.1875 -5.046875l0 1.59375l2.625 0l0 -1.59375l-2.625 0zm16.290771 -0.9375l0 8.171875l-2.5625 0l0 -7.234375l-3.1875 0l0 7.234375l-2.546875 0l0 -9.421875l2.09375 0l0.453125 0.765625l1.328125 -0.765625l2.25 0l2.171875 1.25zm2.0535889 1.03125l0 -2.1875l1.71875 0l0 -1.5625l2.546875 -1.484375l0 3.046875l2.0625 0l0 2.1875l-2.0625 0l0 4.953125l2.0625 0l0 2.1875l-2.453125 0l-2.15625 -1.25l0 -5.890625l-1.71875 0z" fill-rule="nonzero"/><path fill="#0b5394" d="m536.2617 417.13004l148.18896 0l0 31.370087l-148.18896 0z" fill-rule="evenodd"/><path stroke="#0000ff" stroke-width="2.0" stroke-linejoin="round" stroke-linecap="butt" d="m536.2617 417.13004l148.18896 0l0 31.370087l-148.18896 0z" fill-rule="evenodd"/><path fill="#001818" d="m561.9595 438.67508l-2.46875 0l-2.40625 -4.21875l-1.390625 0l0 4.21875l-2.234375 0l0 -11.203125l6.0625 0l1.859375 1.078125l0 4.828125l-1.859375 1.078125l2.4375 4.21875zm-6.265625 -9.28125l0 3.140625l3.453125 0l0 -3.140625l-3.453125 0zm15.358765 8.296875l-1.84375 1.0625l-3.40625 0l-1.859375 -1.0625l0 -6.03125l1.859375 -1.0625l3.40625 0l1.84375 1.0625l0 6.03125zm-4.921875 -5.21875l0 4.40625l2.734375 0l0 -4.40625l-2.734375 0zm9.191895 6.203125l-1.859375 -1.078125l0 -10.609375l2.1875 0l0 9.8125l1.59375 0l0 1.875l-1.921875 0zm5.2319946 0l-1.859375 -1.078125l0 -10.609375l2.1875 0l0 9.8125l1.59375 0l0 1.875l-1.921875 0zm10.482056 -0.984375l-1.84375 1.0625l-3.40625 0l-1.859375 -1.0625l0 -6.03125l1.859375 -1.0625l3.40625 0l1.84375 1.0625l0 6.03125zm-4.921875 -5.21875l0 4.40625l2.734375 0l0 -4.40625l-2.734375 0zm7.3325195 5.21875l0 -7.015625l2.1875 0l0 6.203125l2.734375 0l0 -6.203125l2.1875 0l0 8.078125l-1.796875 0l-0.390625 -0.65625l-1.140625 0.65625l-1.921875 0l-1.859375 -1.0625zm8.879395 -5.140625l0 -1.875l1.46875 0l0 -1.34375l2.1875 -1.265625l0 2.609375l1.765625 0l0 1.875l-1.765625 0l0 4.25l1.765625 0l0 1.875l-2.09375 0l-1.859375 -1.078125l0 -5.046875l-1.46875 0zm25.414612 -5.078125l-2.84375 11.203125l-2.390625 0l-2.015625 -7.5625l-0.046875 0l-2.015625 7.5625l-2.390625 0l-2.84375 -11.203125l2.171875 0l1.890625 7.6875l0.03125 0l2.046875 -7.6875l2.265625 0l2.046875 7.65625l0.03125 0l1.890625 -7.65625l2.171875 0zm8.719421 10.21875l-1.84375 1.0625l-3.40625 0l-1.859375 -1.0625l0 -6.03125l1.859375 -1.0625l3.40625 0l1.84375 1.0625l0 6.03125zm-4.921875 -5.21875l0 4.40625l2.734375 0l0 -4.40625l-2.734375 0zm12.27002 0.078125l-2.75 0l0 6.125l-2.1875 0l0 -8.0l1.8125 0l0.375 0.65625l1.140625 -0.65625l1.609375 0l0 1.875zm3.7940063 -5.5625l0 6.90625l0.03125 0l2.484375 -3.21875l2.515625 0l-2.875 3.5625l3.34375 4.4375l-2.53125 0l-2.09375 -2.828125l-0.875 1.09375l0 1.734375l-2.1875 0l0 -11.6875l2.1875 0zm13.269165 9.8125l0 1.875l-4.78125 0l-1.859375 -1.078125l0 -5.9375l1.859375 -1.0625l2.921875 0l1.859375 1.0625l0 3.828125l-4.453125 0l0 1.3125l4.453125 0zm-4.453125 -4.328125l0 1.375l2.25 0l0 -1.375l-2.25 0zm11.789978 0.078125l-2.75 0l0 6.125l-2.1875 0l0 -8.0l1.8125 0l0.375 0.65625l1.140625 -0.65625l1.609375 0l0 1.875z" fill-rule="nonzero"/><path fill="#0b5394" d="m536.2617 380.5387l148.18896 0l0 31.370087l-148.18896 0z" fill-rule="evenodd"/><path stroke="#0000ff" stroke-width="2.0" stroke-linejoin="round" stroke-linecap="butt" d="m536.2617 380.5387l148.18896 0l0 31.370087l-148.18896 0z" fill-rule="evenodd"/><path fill="#001818" d="m561.9595 402.08374l-2.46875 0l-2.40625 -4.21875l-1.390625 0l0 4.21875l-2.234375 0l0 -11.203125l6.0625 0l1.859375 1.078125l0 4.828125l-1.859375 1.078125l2.4375 4.21875zm-6.265625 -9.28125l0 3.140625l3.453125 0l0 -3.140625l-3.453125 0zm15.358765 8.296875l-1.84375 1.0625l-3.40625 0l-1.859375 -1.0625l0 -6.03125l1.859375 -1.0625l3.40625 0l1.84375 1.0625l0 6.03125zm-4.921875 -5.21875l0 4.40625l2.734375 0l0 -4.40625l-2.734375 0zm9.191895 6.203125l-1.859375 -1.078125l0 -10.609375l2.1875 0l0 9.8125l1.59375 0l0 1.875l-1.921875 0zm5.2319946 0l-1.859375 -1.078125l0 -10.609375l2.1875 0l0 9.8125l1.59375 0l0 1.875l-1.921875 0zm10.482056 -0.984375l-1.84375 1.0625l-3.40625 0l-1.859375 -1.0625l0 -6.03125l1.859375 -1.0625l3.40625 0l1.84375 1.0625l0 6.03125zm-4.921875 -5.21875l0 4.40625l2.734375 0l0 -4.40625l-2.734375 0zm7.3325195 5.21875l0 -7.015625l2.1875 0l0 6.203125l2.734375 0l0 -6.203125l2.1875 0l0 8.078125l-1.796875 0l-0.390625 -0.65625l-1.140625 0.65625l-1.921875 0l-1.859375 -1.0625zm8.879395 -5.140625l0 -1.875l1.46875 0l0 -1.34375l2.1875 -1.265625l0 2.609375l1.765625 0l0 1.875l-1.765625 0l0 4.25l1.765625 0l0 1.875l-2.09375 0l-1.859375 -1.078125l0 -5.046875l-1.46875 0zm25.414612 -5.078125l-2.84375 11.203125l-2.390625 0l-2.015625 -7.5625l-0.046875 0l-2.015625 7.5625l-2.390625 0l-2.84375 -11.203125l2.171875 0l1.890625 7.6875l0.03125 0l2.046875 -7.6875l2.265625 0l2.046875 7.65625l0.03125 0l1.890625 -7.65625l2.171875 0zm8.719421 10.21875l-1.84375 1.0625l-3.40625 0l-1.859375 -1.0625l0 -6.03125l1.859375 -1.0625l3.40625 0l1.84375 1.0625l0 6.03125zm-4.921875 -5.21875l0 4.40625l2.734375 0l0 -4.40625l-2.734375 0zm12.27002 0.078125l-2.75 0l0 6.125l-2.1875 0l0 -8.0l1.8125 0l0.375 0.65625l1.140625 -0.65625l1.609375 0l0 1.875zm3.7940063 -5.5625l0 6.90625l0.03125 0l2.484375 -3.21875l2.515625 0l-2.875 3.5625l3.34375 4.4375l-2.53125 0l-2.09375 -2.828125l-0.875 1.09375l0 1.734375l-2.1875 0l0 -11.6875l2.1875 0zm13.269165 9.8125l0 1.875l-4.78125 0l-1.859375 -1.078125l0 -5.9375l1.859375 -1.0625l2.921875 0l1.859375 1.0625l0 3.828125l-4.453125 0l0 1.3125l4.453125 0zm-4.453125 -4.328125l0 1.375l2.25 0l0 -1.375l-2.25 0zm11.789978 0.078125l-2.75 0l0 6.125l-2.1875 0l0 -8.0l1.8125 0l0.375 0.65625l1.140625 -0.65625l1.609375 0l0 1.875z" fill-rule="nonzero"/><path fill="#0b5394" d="m536.5662 494.70483l148.18896 0l0 31.370117l-148.18896 0z" fill-rule="evenodd"/><path stroke="#0000ff" stroke-width="2.0" stroke-linejoin="round" stroke-linecap="butt" d="m536.5662 494.70483l148.18896 0l0 31.370117l-148.18896 0z" fill-rule="evenodd"/><path fill="#001818" d="m562.264 516.2499l-2.46875 0l-2.40625 -4.21875l-1.390625 0l0 4.21875l-2.234375 0l0 -11.203125l6.0625 0l1.859375 1.078125l0 4.828125l-1.859375 1.078125l2.4375 4.21875zm-6.265625 -9.28125l0 3.140625l3.453125 0l0 -3.140625l-3.453125 0zm15.358765 8.296875l-1.84375 1.0625l-3.40625 0l-1.859375 -1.0625l0 -6.03125l1.859375 -1.0625l3.40625 0l1.84375 1.0625l0 6.03125zm-4.921875 -5.21875l0 4.40625l2.734375 0l0 -4.40625l-2.734375 0zm9.191895 6.203125l-1.859375 -1.078125l0 -10.609375l2.1875 0l0 9.8125l1.59375 0l0 1.875l-1.921875 0zm5.2319946 0l-1.859375 -1.078125l0 -10.609375l2.1875 0l0 9.8125l1.59375 0l0 1.875l-1.921875 0zm10.481995 -0.984375l-1.84375 1.0625l-3.40625 0l-1.859375 -1.0625l0 -6.03125l1.859375 -1.0625l3.40625 0l1.84375 1.0625l0 6.03125zm-4.921875 -5.21875l0 4.40625l2.734375 0l0 -4.40625l-2.734375 0zm7.3325195 5.21875l0 -7.015625l2.1875 0l0 6.203125l2.734375 0l0 -6.203125l2.1875 0l0 8.078125l-1.796875 0l-0.390625 -0.65625l-1.140625 0.65625l-1.921875 0l-1.859375 -1.0625zm8.879395 -5.140625l0 -1.875l1.46875 0l0 -1.34375l2.1875 -1.265625l0 2.609375l1.765625 0l0 1.875l-1.765625 0l0 4.25l1.765625 0l0 1.875l-2.09375 0l-1.859375 -1.078125l0 -5.046875l-1.46875 0zm25.414673 -5.078125l-2.84375 11.203125l-2.390625 0l-2.015625 -7.5625l-0.046875 0l-2.015625 7.5625l-2.390625 0l-2.84375 -11.203125l2.171875 0l1.890625 7.6875l0.03125 0l2.046875 -7.6875l2.265625 0l2.046875 7.65625l0.03125 0l1.890625 -7.65625l2.171875 0zm8.71936 10.21875l-1.84375 1.0625l-3.40625 0l-1.859375 -1.0625l0 -6.03125l1.859375 -1.0625l3.40625 0l1.84375 1.0625l0 6.03125zm-4.921875 -5.21875l0 4.40625l2.734375 0l0 -4.40625l-2.734375 0zm12.27002 0.078125l-2.75 0l0 6.125l-2.1875 0l0 -8.0l1.8125 0l0.375 0.65625l1.140625 -0.65625l1.609375 0l0 1.875zm3.7940063 -5.5625l0 6.90625l0.03125 0l2.484375 -3.21875l2.515625 0l-2.875 3.5625l3.34375 4.4375l-2.53125 0l-2.09375 -2.828125l-0.875 1.09375l0 1.734375l-2.1875 0l0 -11.6875l2.1875 0zm13.269165 9.8125l0 1.875l-4.78125 0l-1.859375 -1.078125l0 -5.9375l1.859375 -1.0625l2.921875 0l1.859375 1.0625l0 3.828125l-4.453125 0l0 1.3125l4.453125 0zm-4.453125 -4.328125l0 1.375l2.25 0l0 -1.375l-2.25 0zm11.790039 0.078125l-2.75 0l0 6.125l-2.1875 0l0 -8.0l1.8125 0l0.375 0.65625l1.140625 -0.65625l1.609375 0l0 1.875z" fill-rule="nonzero"/><path fill="#0b5394" d="m536.5662 458.1135l148.18896 0l0 31.370087l-148.18896 0z" fill-rule="evenodd"/><path stroke="#0000ff" stroke-width="2.0" stroke-linejoin="round" stroke-linecap="butt" d="m536.5662 458.1135l148.18896 0l0 31.370087l-148.18896 0z" fill-rule="evenodd"/><path fill="#001818" d="m562.264 479.65854l-2.46875 0l-2.40625 -4.21875l-1.390625 0l0 4.21875l-2.234375 0l0 -11.203125l6.0625 0l1.859375 1.078125l0 4.828125l-1.859375 1.078125l2.4375 4.21875zm-6.265625 -9.28125l0 3.140625l3.453125 0l0 -3.140625l-3.453125 0zm15.358765 8.296875l-1.84375 1.0625l-3.40625 0l-1.859375 -1.0625l0 -6.03125l1.859375 -1.0625l3.40625 0l1.84375 1.0625l0 6.03125zm-4.921875 -5.21875l0 4.40625l2.734375 0l0 -4.40625l-2.734375 0zm9.191895 6.203125l-1.859375 -1.078125l0 -10.609375l2.1875 0l0 9.8125l1.59375 0l0 1.875l-1.921875 0zm5.2319946 0l-1.859375 -1.078125l0 -10.609375l2.1875 0l0 9.8125l1.59375 0l0 1.875l-1.921875 0zm10.481995 -0.984375l-1.84375 1.0625l-3.40625 0l-1.859375 -1.0625l0 -6.03125l1.859375 -1.0625l3.40625 0l1.84375 1.0625l0 6.03125zm-4.921875 -5.21875l0 4.40625l2.734375 0l0 -4.40625l-2.734375 0zm7.3325195 5.21875l0 -7.015625l2.1875 0l0 6.203125l2.734375 0l0 -6.203125l2.1875 0l0 8.078125l-1.796875 0l-0.390625 -0.65625l-1.140625 0.65625l-1.921875 0l-1.859375 -1.0625zm8.879395 -5.140625l0 -1.875l1.46875 0l0 -1.34375l2.1875 -1.265625l0 2.609375l1.765625 0l0 1.875l-1.765625 0l0 4.25l1.765625 0l0 1.875l-2.09375 0l-1.859375 -1.078125l0 -5.046875l-1.46875 0zm25.414673 -5.078125l-2.84375 11.203125l-2.390625 0l-2.015625 -7.5625l-0.046875 0l-2.015625 7.5625l-2.390625 0l-2.84375 -11.203125l2.171875 0l1.890625 7.6875l0.03125 0l2.046875 -7.6875l2.265625 0l2.046875 7.65625l0.03125 0l1.890625 -7.65625l2.171875 0zm8.71936 10.21875l-1.84375 1.0625l-3.40625 0l-1.859375 -1.0625l0 -6.03125l1.859375 -1.0625l3.40625 0l1.84375 1.0625l0 6.03125zm-4.921875 -5.21875l0 4.40625l2.734375 0l0 -4.40625l-2.734375 0zm12.27002 0.078125l-2.75 0l0 6.125l-2.1875 0l0 -8.0l1.8125 0l0.375 0.65625l1.140625 -0.65625l1.609375 0l0 1.875zm3.7940063 -5.5625l0 6.90625l0.03125 0l2.484375 -3.21875l2.515625 0l-2.875 3.5625l3.34375 4.4375l-2.53125 0l-2.09375 -2.828125l-0.875 1.09375l0 1.734375l-2.1875 0l0 -11.6875l2.1875 0zm13.269165 9.8125l0 1.875l-4.78125 0l-1.859375 -1.078125l0 -5.9375l1.859375 -1.0625l2.921875 0l1.859375 1.0625l0 3.828125l-4.453125 0l0 1.3125l4.453125 0zm-4.453125 -4.328125l0 1.375l2.25 0l0 -1.375l-2.25 0zm11.790039 0.078125l-2.75 0l0 6.125l-2.1875 0l0 -8.0l1.8125 0l0.375 0.65625l1.140625 -0.65625l1.609375 0l0 1.875z" fill-rule="nonzero"/><path fill="#000000" fill-opacity="0.0" d="m694.51587 345.10596l-206.77167 0.06298828l0 43.653534l206.77167 -0.06298828z" fill-rule="evenodd"/><path fill="#00bbbb" d="m567.7687 368.23645l2.609375 -7.9345703E-4l0 2.671875l-2.15625 1.2506409l-5.28125 0.0016174316l-2.171875 -1.2493591l0 -10.75l2.171875 -1.2506409l5.28125 -0.0016174316l2.15625 1.2493591l0 2.671875l-2.609375 7.9345703E-4l0 -1.671875l-4.375 0.0013122559l0 8.765625l4.375 -0.0013122559l0 -1.6875zm7.5773315 3.8258057l-2.15625 -1.2493591l0 -12.375l2.546875 -7.6293945E-4l0 11.4375l1.875 -5.79834E-4l0 2.1875l-2.265625 7.019043E-4zm6.491211 -9.330109l0 9.328125l-2.546875 7.9345703E-4l0 -9.328125l2.546875 -7.9345703E-4zm-2.640625 -1.7335815l0 -2.5625l2.734375 -8.239746E-4l0 2.5625l-2.734375 8.239746E-4zm13.182495 8.871002l0 2.1875l-5.578125 0.0017089844l-2.15625 -1.2493591l0 -6.921875l2.15625 -1.2506409l3.421875 -0.0010681152l2.15625 1.2493591l0 4.453125l-5.1875 0.0015869141l0 1.53125l5.1875 -0.0015869141zm-5.1875 -5.045288l0 1.59375l2.625 -8.239746E-4l0 -1.59375l-2.625 8.239746E-4zm16.290771 -0.94247437l0 8.171875l-2.5625 7.9345703E-4l0 -7.234375l-3.1875 9.460449E-4l0 7.234375l-2.546875 7.9345703E-4l0 -9.421875l2.09375 -6.4086914E-4l0.453125 0.7654724l1.328125 -0.7660217l2.25 -6.713867E-4l2.171875 1.2493286zm2.0535889 1.0306396l0 -2.1875l1.71875 -5.493164E-4l0 -1.5625l2.546875 -1.4851379l0 3.046875l2.0625 -6.4086914E-4l0 2.1875l-2.0625 6.4086914E-4l0 4.953125l2.0625 -6.4086914E-4l0 2.1875l-2.453125 7.6293945E-4l-2.15625 -1.2493591l0 -5.890625l-1.71875 5.493164E-4zm16.12854 2.5419617l0 3.34375l-2.15625 1.2506409l-5.21875 0.0015869141l0 -2.1875l4.828125 -0.0014648438l0 -1.4375l-2.671875 8.239746E-4l-2.15625 -1.2493591l0 -3.203125l2.15625 -1.2506409l5.03125 -0.0015563965l0 2.1875l-4.640625 0.0014343262l0 1.296875l2.671875 -8.239746E-4l2.15625 1.2493591z" fill-rule="nonzero"/><path fill="#000000" fill-opacity="0.0" d="m472.97913 345.10596l-206.77167 0.06298828l0 43.653534l206.77167 -0.06298828z" fill-rule="evenodd"/><path fill="#00bbbb" d="m336.78796 365.44244l0 -5.28125l2.171875 -1.2506714l4.71875 -0.0014343262l2.171875 1.2493286l0 2.484375l-2.625 8.239746E-4l0 -1.484375l-3.8125 0.001159668l0 3.109375l4.265625 -0.0013122559l2.171875 1.2493286l0 5.390625l-2.171875 1.2506714l-4.90625 0.0014953613l-2.15625 -1.2493286l0 -2.484375l2.609375 -7.9345703E-4l0 1.5l4.0 -0.0012207031l0 -3.234375l-4.265625 0.0012817383l-2.171875 -1.2493286zm19.782349 4.4314575l0 2.1875l-5.578125 0.0017089844l-2.15625 -1.2493286l0 -6.921875l2.15625 -1.2506714l3.421875 -0.0010375977l2.15625 1.2493286l0 4.453125l-5.1875 0.0015869141l0 1.53125l5.1875 -0.0015869141zm-5.1875 -5.045288l0 1.59375l2.625 -7.9345703E-4l0 -1.59375l-2.625 7.9345703E-4zm13.7438965 0.08956909l-3.203125 9.765625E-4l0 7.140625l-2.546875 7.6293945E-4l0 -9.328125l2.09375 -6.4086914E-4l0.453125 0.7655029l1.328125 -0.7660217l1.875 -5.79834E-4l0 2.1875zm3.3022766 -2.188507l2.15625 6.1243286l0.03125 0l2.171875 -6.1256714l2.546875 -7.6293945E-4l-3.453125 9.329193l-2.546875 7.6293945E-4l-3.453125 -9.327087l2.546875 -7.6293945E-4zm16.330902 7.1356506l0 2.1875l-5.578125 0.0017089844l-2.15625 -1.2493591l0 -6.921875l2.15625 -1.2506409l3.421875 -0.0010681152l2.15625 1.2493591l0 4.453125l-5.1875 0.0015869141l0 1.53125l5.1875 -0.0015869141zm-5.1875 -5.045288l0 1.59375l2.625 -7.9345703E-4l0 -1.59375l-2.625 7.9345703E-4zm13.743927 0.08956909l-3.203125 9.765625E-4l0 7.140625l-2.546875 7.6293945E-4l0 -9.328125l2.09375 -6.4086914E-4l0.453125 0.7655029l1.328125 -0.76605225l1.875 -5.493164E-4l0 2.1875zm9.255402 2.5440369l0 3.34375l-2.15625 1.2506714l-5.21875 0.0015869141l0 -2.1875l4.828125 -0.0014648438l0 -1.4375l-2.671875 7.9345703E-4l-2.15625 -1.2493286l0 -3.203125l2.15625 -1.2506714l5.03125 -0.0015258789l0 2.1875l-4.640625 0.0014038086l0 1.296875l2.671875 -7.9345703E-4l2.15625 1.2493286z" fill-rule="nonzero"/><path fill="#000000" fill-opacity="0.0" d="m435.9777 415.03674l28.59842 0" fill-rule="evenodd"/><path stroke="#00ff00" stroke-width="4.0" stroke-linejoin="round" stroke-linecap="butt" d="m435.9777 415.03674l28.59842 0" fill-rule="evenodd"/><path fill="#000000" fill-opacity="0.0" d="m435.97614 492.2467l29.259857 0" fill-rule="evenodd"/><path stroke="#00ff00" stroke-width="4.0" stroke-linejoin="round" stroke-linecap="butt" d="m435.97614 492.2467l29.259857 0" fill-rule="evenodd"/><path fill="#000000" fill-opacity="0.0" d="m252.77295 453.96472l20.818909 0l0 -38.929108l20.818878 0" fill-rule="evenodd"/><path stroke="#ff0000" stroke-width="2.0" stroke-linejoin="round" stroke-linecap="butt" d="m252.77295 453.96472l20.818909 0l0 -38.92914l8.818878 0" fill-rule="evenodd"/><path fill="#ff0000" stroke="#ff0000" stroke-width="2.0" stroke-linecap="butt" d="m282.41074 418.33905l9.076202 -3.3034668l-9.076202 -3.3034363z" fill-rule="evenodd"/><path fill="#000000" fill-opacity="0.0" d="m252.77104 453.98013l20.818893 0l0 38.2677l20.818909 0" fill-rule="evenodd"/><path stroke="#ff0000" stroke-width="2.0" stroke-linejoin="round" stroke-linecap="butt" d="m252.77104 453.9801l20.818893 0l0 38.26773l8.818909 0" fill-rule="evenodd"/><path fill="#ff0000" stroke="#ff0000" stroke-width="2.0" stroke-linecap="butt" d="m282.40884 495.5513l9.076172 -3.3034668l-9.076172 -3.3034668z" fill-rule="evenodd"/><path fill="#000000" fill-opacity="0.0" d="m497.3051 414.90118l18.86615 0l0 -18.677155l18.86615 0" fill-rule="evenodd"/><path stroke="#00ff00" stroke-width="2.0" stroke-linejoin="round" stroke-linecap="butt" d="m497.3051 414.9012l18.86615 0l0 -18.677185l6.86615 0" fill-rule="evenodd"/><path fill="#00ff00" stroke="#00ff00" stroke-width="2.0" stroke-linecap="butt" d="m523.0374 399.5275l9.076172 -3.3034668l-9.076172 -3.3034668z" fill-rule="evenodd"/><path fill="#000000" fill-opacity="0.0" d="m497.3051 414.89413l18.86615 0l0 17.921234l18.86615 0" fill-rule="evenodd"/><path stroke="#00ff00" stroke-width="2.0" stroke-linejoin="round" stroke-linecap="butt" d="m497.3051 414.8941l18.86615 0l0 17.921265l6.86615 0" fill-rule="evenodd"/><path fill="#00ff00" stroke="#00ff00" stroke-width="2.0" stroke-linecap="butt" d="m523.0374 436.11884l9.076172 -3.3034668l-9.076172 -3.3034668z" fill-rule="evenodd"/><path fill="#000000" fill-opacity="0.0" d="m497.34384 492.63348l18.86612 0l0 -18.834656l18.86615 0" fill-rule="evenodd"/><path stroke="#00ff00" stroke-width="2.0" stroke-linejoin="round" stroke-linecap="butt" d="m497.34384 492.63348l18.86612 0l0 -18.834625l6.86615 0" fill-rule="evenodd"/><path fill="#00ff00" stroke="#00ff00" stroke-width="2.0" stroke-linecap="butt" d="m523.0761 477.1023l9.076172 -3.3034363l-9.076172 -3.3034668z" fill-rule="evenodd"/><path fill="#000000" fill-opacity="0.0" d="m497.34384 492.6579l18.86612 0l0 17.7323l18.86615 0" fill-rule="evenodd"/><path stroke="#00ff00" stroke-width="2.0" stroke-linejoin="round" stroke-linecap="butt" d="m497.34384 492.6579l18.86612 0l0 17.73227l6.86615 0" fill-rule="evenodd"/><path fill="#00ff00" stroke="#00ff00" stroke-width="2.0" stroke-linecap="butt" d="m523.0761 513.69366l9.076172 -3.3034973l-9.076172 -3.3034668z" fill-rule="evenodd"/><path fill="#000000" fill-opacity="0.0" d="m287.4065 427.86902l-77.543304 0.03149414l0 43.653534l77.543304 -0.03149414z" fill-rule="evenodd"/><path fill="#ff0000" d="m235.6678 445.69003l0 4.0l-1.859375 7.6293945E-4l0 -9.328125l5.703125 -0.002319336l0 1.59375l-3.84375 0.0015563965l0 2.140625l3.046875 -0.0012512207l0 1.59375l-3.046875 0.0012512207zm9.308838 -1.1131592l-2.296875 9.460449E-4l0 5.109375l-1.828125 7.324219E-4l0 -6.65625l1.5 -6.1035156E-4l0.328125 0.5311279l0.9375 -0.5316467l1.359375 -5.493164E-4l0 1.546875zm7.263687 4.27829l-1.546875 0.89126587l-2.84375 0.001159668l-1.546875 -0.89001465l0 -5.015625l1.546875 -0.89123535l2.84375 -0.001159668l1.546875 0.88998413l0 5.015625zm-4.109375 -4.3420715l0 3.671875l2.28125 -9.1552734E-4l0 -3.671875l-2.28125 9.1552734E-4zm15.477081 -0.6781616l0 5.84375l-1.828125 7.324219E-4l0 -5.171875l-1.953125 7.9345703E-4l0 5.171875l-1.828125 7.6293945E-4l0 -5.171875l-1.9375 7.6293945E-4l0 5.171875l-1.828125 7.6293945E-4l0 -6.734375l1.5 -6.1035156E-4l0.328125 0.5467224l0.9375 -0.5472412l1.28125 -5.187988E-4l1.25 0.7182312l1.25 -0.7192383l1.28125 -5.187988E-4l1.546875 0.88998413z" fill-rule="nonzero"/><path fill="#ff0000" d="m231.12917 462.9575l1.875 -7.6293945E-4l0 1.90625l-1.546875 0.89126587l-3.78125 0.0015258789l-1.53125 -0.88998413l0 -7.671875l1.53125 -0.89126587l3.78125 -0.0015258789l1.546875 0.88998413l0 1.90625l-1.875 7.6293945E-4l0 -1.203125l-3.125 0.0012817383l0 6.265625l3.125 -0.0012817383l0 -1.203125zm5.4183197 2.7321777l-1.546875 -0.88998413l0 -8.84375l1.828125 -7.6293945E-4l0 8.1719055l1.328125 -5.493164E-4l0 1.5625l-1.609375 6.4086914E-4zm2.8114014 -0.82925415l0 -5.828125l1.828125 -7.6293945E-4l0 5.1562805l2.28125 -9.460449E-4l0 -5.15625l1.828125 -7.324219E-4l0 6.71875l-1.515625 6.1035156E-4l-0.3125 -0.5467529l-0.953125 0.5472717l-1.609375 6.4086914E-4l-1.546875 -0.88998413zm13.211456 -2.458496l0 2.390625l-1.546875 0.89126587l-3.734375 0.0014953613l0 -1.5625l3.453125 -0.0014038086l0 -1.015625l-1.90625 7.9345703E-4l-1.546875 -0.90563965l0 -2.28125l1.546875 -0.89123535l3.59375 -0.0014648438l0 1.546875l-3.3125 0.0013427734l0 0.9375l1.90625 -7.6293945E-4l1.546875 0.88998413zm1.4646301 -1.8287354l0 -1.546875l1.21875 -4.8828125E-4l0 -1.125l1.828125 -1.0632324l0 2.1875l1.46875 -6.1035156E-4l0 1.546875l-1.46875 6.1035156E-4l0 3.546875l1.46875 -6.1035156E-4l0 1.5625l-1.75 7.324219E-4l-1.546875 -0.89001465l0 -4.21875l-1.21875 4.8828125E-4zm11.780243 3.5421143l0 1.5625l-3.984375 0.0016174316l-1.546875 -0.89001465l0 -4.953125l1.546875 -0.89123535l2.4375 -0.0010070801l1.546875 0.89001465l0 3.1875l-3.703125 0.0014953613l0 1.09375l3.703125 -0.0014953613zm-3.703125 -3.6078796l0 1.140625l1.875 -7.6293945E-4l0 -1.140625l-1.875 7.6293945E-4zm9.82724 0.058502197l-2.296875 9.460449E-4l0 5.109375l-1.828125 7.324219E-4l0 -6.65625l1.5 -6.1035156E-4l0.328125 0.5311279l0.9375 -0.5316467l1.359375 -5.493164E-4l0 1.546875z" fill-rule="nonzero"/></g></svg>